<svg width="188" height="54" viewBox="0 0 188 54" fill="none" xmlns="http://www.w3.org/2000/svg">
<path d="M42.099 23.603C41.9767 23.4805 41.8441 23.3681 41.7116 23.2761C41.6402 23.2251 41.5688 23.1842 41.4974 23.1434C41.426 23.1025 41.3547 23.0718 41.2833 23.031C41.0997 22.9493 40.906 22.8982 40.7021 22.8675C40.6205 22.8573 40.5287 22.8471 40.4369 22.8471C40.335 22.8471 40.233 22.8471 40.131 22.8573C40.1004 22.8573 40.08 22.8573 40.0495 22.8675L39.8353 22.8982C39.7843 22.9084 39.7435 22.9186 39.6926 22.9288C39.5294 22.9697 39.3663 23.031 39.2031 23.1127C38.7646 23.3272 38.3772 23.6235 38.0305 23.9708L37.3779 24.6348L37.9795 20.232C38.0407 19.7519 38.1324 19.2718 38.2446 18.8019L39.3561 14.1949C39.3867 14.0621 39.3867 13.9395 39.3561 13.8169L39.9067 11.5389C39.9883 11.447 40.0495 11.3346 40.08 11.2018L40.2024 10.6809C40.7632 8.36204 40.8448 5.99213 40.4369 3.64264C40.2636 2.63134 39.6008 1.76306 38.6729 1.33402C38.2752 1.13993 37.8163 1.048 37.3575 1.048C36.7864 1.03778 36.2154 1.18079 35.7056 1.48725L32.2692 3.52006C29.8933 4.92975 27.3237 5.95126 24.6317 6.56417C23.7242 6.76848 22.7861 6.88084 21.848 6.89106H21.5625C20.6244 6.88084 19.6862 6.76848 18.7787 6.56417C16.0867 5.95126 13.5069 4.92975 11.131 3.52006L7.70487 1.48725C7.19502 1.19101 6.624 1.03778 6.05297 1.048C5.59411 1.048 5.13525 1.13993 4.70698 1.33402C3.77906 1.76306 3.11626 2.63134 2.94291 3.64264C2.53504 5.99213 2.61661 8.36204 3.17744 10.6809L3.29981 11.2018C3.3304 11.3346 3.39158 11.447 3.47315 11.5389L4.02379 13.8169C3.99319 13.9395 3.983 14.0621 4.02379 14.1949L5.13525 18.8019C5.24741 19.2718 5.33919 19.7519 5.40037 20.232L6.00199 24.6348L5.34938 23.9708C5.00269 23.6235 4.61521 23.3374 4.17674 23.1127C4.01359 23.031 3.86064 22.9697 3.68729 22.9288C3.6363 22.9186 3.59552 22.9084 3.54453 22.8982C3.47315 22.888 3.40177 22.8675 3.3304 22.8675C3.29981 22.8675 3.27941 22.8573 3.24882 22.8573C3.14685 22.8471 3.04488 22.8471 2.94291 22.8471C2.85114 22.8471 2.76957 22.8573 2.67779 22.8675C2.48405 22.8982 2.28011 22.9493 2.09657 23.031C2.02519 23.0616 1.95381 23.1025 1.88243 23.1434C1.81106 23.1842 1.73968 23.2251 1.6683 23.2761C1.53574 23.3681 1.40318 23.4805 1.28082 23.603C0.51605 24.3896 0.363096 25.5235 0.883138 26.4939L3.44256 31.2337C3.80965 31.9284 4.46225 32.4289 5.21682 32.623L5.48194 32.6945L6.12435 32.858L9.82583 50.2646C10.0502 51.6436 11.0087 52.7673 12.3445 53.1759C12.6096 53.2576 12.8747 53.3087 13.1398 53.3291C13.2418 53.3393 13.3438 53.3393 13.4457 53.3393C14.4348 53.3393 15.3831 52.9409 16.0969 52.185L21.6746 46.2704L27.2523 52.185C27.9559 52.9307 28.9144 53.3393 29.9035 53.3393C30.0055 53.3393 30.1075 53.3393 30.2094 53.3291C30.3114 53.3393 30.4134 53.3393 30.5153 53.3393C30.8824 53.3393 31.2495 53.2882 31.6166 53.1657C32.9524 52.7468 33.9211 51.6334 34.1353 50.2543L37.8571 32.7762C37.8673 32.7456 37.8673 32.7149 37.8673 32.6843L38.1324 32.6128C38.887 32.4187 39.5396 31.9079 39.9067 31.2235L42.4661 26.4837C42.5069 26.4122 42.5375 26.3407 42.5681 26.2692C42.5885 26.2181 42.6089 26.167 42.6293 26.1262C42.6497 26.0751 42.6599 26.024 42.6803 25.9729C42.6905 25.9219 42.7108 25.8708 42.721 25.8197L42.7516 25.6665C42.7618 25.6154 42.7618 25.5643 42.772 25.5133C42.8638 24.8288 42.6191 24.1342 42.099 23.603ZM36.8884 17.5965L36.6845 18.4342C36.5621 18.9551 36.4601 19.4863 36.3888 20.0175L35.8789 23.7256L22.4802 28.1692V8.41311C23.3163 8.37225 24.1525 8.25989 24.9682 8.08623L24.9988 8.07601C27.8744 7.43246 30.6173 6.34966 33.1462 4.83781L36.5825 2.805C36.817 2.66199 37.0822 2.59048 37.3473 2.58027C37.5512 2.59048 37.7654 2.64156 37.9693 2.73349C38.4485 2.95823 38.785 3.38726 38.8666 3.90824C39.2337 6.05342 39.1623 8.20881 38.6525 10.3233L37.6736 14.389C37.643 14.5218 37.643 14.6444 37.6736 14.7669L37.072 17.2696C36.9802 17.3616 36.919 17.4739 36.8884 17.5965ZM28.7717 33.4198L23.4897 35.1768C23.1634 35.2892 22.8269 35.3607 22.4904 35.4117V29.8343L35.6546 25.4724L35.5016 26.5756L28.7717 33.4198ZM21.8072 37.0155C22.6127 37.0155 23.4081 36.8929 24.1729 36.6376L29.3631 34.9112C29.4039 34.901 29.4447 34.8806 29.4855 34.8601L29.5161 34.8499L29.5568 34.8397L21.7052 43.2876L13.8536 34.8397L13.8842 34.8499L13.9148 34.8601C13.9556 34.8806 13.9964 34.901 14.0371 34.9112L19.2274 36.6376C19.9921 36.8929 20.7977 37.0155 21.5931 37.0155H21.8072ZM12.8441 51.7151C12.0488 51.4699 11.4981 50.8264 11.3758 50.0092C11.3758 49.999 11.3758 49.9785 11.3656 49.9683L7.81704 33.287L9.96858 33.8386L11.1106 34.1348L21.022 44.7995L15.0262 51.1533C14.5368 51.6742 13.874 51.899 13.1908 51.807C13.0684 51.7764 12.9563 51.756 12.8441 51.7151ZM7.02168 20.0175C6.9503 19.4863 6.84833 18.9551 6.72597 18.4342L6.52203 17.5965C6.49144 17.4637 6.43026 17.3514 6.34868 17.2594L5.74706 14.7567C5.77765 14.6341 5.77765 14.5116 5.74706 14.3788L4.75796 10.3131C4.24812 8.1986 4.17674 6.0432 4.54383 3.89802C4.6356 3.37705 4.9619 2.94801 5.44116 2.72328C5.64509 2.63134 5.84903 2.58027 6.06317 2.57005C6.32829 2.58027 6.59341 2.65177 6.82793 2.79479L10.2643 4.8276C12.7931 6.32923 15.5361 7.42225 18.4116 8.0658L18.4422 8.07601C19.258 8.25989 20.0941 8.36204 20.9303 8.4029V28.1692L7.53152 23.7358L7.02168 20.0175ZM7.919 26.5756L7.76605 25.4724L20.9303 29.8343V35.4117C20.5938 35.3607 20.2573 35.2789 19.931 35.1768L14.649 33.4198L7.919 26.5756ZM5.6247 31.1418C5.27801 31.0499 4.9823 30.8251 4.80895 30.5085L2.24952 25.7686C2.20874 25.6971 2.18834 25.6358 2.16795 25.5746C2.14755 25.5235 2.13736 25.4826 2.13736 25.4315V25.4213C2.10677 25.1966 2.17815 25.0025 2.25972 24.8697C2.26992 24.8493 2.28011 24.8391 2.29031 24.8186C2.31071 24.788 2.3311 24.7676 2.3413 24.7471L2.37189 24.7165C2.38208 24.6961 2.39228 24.6858 2.40248 24.6756C2.48405 24.5939 2.71858 24.3794 3.06528 24.3794C3.19784 24.3794 3.34059 24.41 3.49355 24.4918C3.77906 24.6348 4.03398 24.8288 4.25831 25.0536L11.804 32.7354C11.7224 32.6945 11.6307 32.6741 11.5491 32.6639L5.6247 31.1418ZM30.2298 51.7968C29.5466 51.899 28.8838 51.664 28.3944 51.1431L22.3986 44.7892L32.31 34.1348L33.4521 33.8386L35.6036 33.287L36.2562 33.1133L32.6669 49.9581C32.6669 49.9683 32.6669 49.9888 32.6567 49.999C32.5343 50.8264 31.9837 51.4597 31.1883 51.7049C30.862 51.8173 30.5357 51.8377 30.2298 51.7968ZM41.2731 25.4111C41.2731 25.4418 41.2629 25.4622 41.2629 25.4928C41.2527 25.5235 41.2527 25.5541 41.2425 25.5746C41.2221 25.6358 41.2017 25.6971 41.1609 25.7584L38.6015 30.4983C38.4282 30.8149 38.1324 31.0397 37.7857 31.1316L31.8613 32.6537C31.7696 32.6639 31.688 32.6843 31.6064 32.7252L39.1521 25.0434C39.3765 24.8186 39.6314 24.6245 39.9169 24.4815C40.0699 24.3998 40.2228 24.3692 40.3452 24.3692C40.6817 24.3692 40.9264 24.5735 41.008 24.6654C41.0284 24.6961 41.0691 24.7267 41.1099 24.788C41.1303 24.8084 41.1405 24.8288 41.1609 24.8595C41.1813 24.9004 41.2017 24.9412 41.2221 24.9923C41.2323 25.0025 41.2323 25.0229 41.2425 25.0434C41.2629 25.1455 41.2833 25.2681 41.2731 25.4111Z" fill="white"/>
<path d="M64.2898 26.8557C63.8551 26.3175 63.2641 25.9065 62.5168 25.6178C63.0834 25.3242 63.523 24.923 63.8258 24.4093C64.1335 23.9004 64.2898 23.2986 64.2898 22.6088C64.2898 21.5128 63.9235 20.6859 63.186 20.1379C62.4534 19.5899 61.4131 19.3159 60.0797 19.3159H56.7V32.4041H60.5828C61.3691 32.4041 62.0871 32.272 62.7415 32.0127C63.4009 31.7534 63.9283 31.3522 64.3337 30.8042C64.7391 30.2513 64.9393 29.5614 64.9393 28.7296C64.9393 28.0153 64.7244 27.3939 64.2898 26.8557ZM58.4533 25.0356V20.999H60.1481C60.8856 20.999 61.457 21.1605 61.8673 21.4883C62.2775 21.8161 62.4827 22.3103 62.4827 22.9708C62.4827 23.5775 62.3117 24.0717 61.9649 24.4582C61.6231 24.8448 61.1151 25.0356 60.4411 25.0356H58.4533ZM62.3899 30.2611C61.8966 30.6036 61.2714 30.7748 60.5095 30.7748H58.4533V26.7383H60.3874C61.1444 26.7383 61.794 26.8997 62.3264 27.2275C62.8636 27.5505 63.1322 28.0593 63.1322 28.7492C63.1322 29.4097 62.8832 29.9137 62.3899 30.2611ZM67.9772 22.5403C67.3716 23.5628 67.0737 24.6735 67.0737 25.8673C67.0737 27.1003 67.3716 28.2257 67.9674 29.2434C68.5633 30.266 69.374 31.0684 70.3948 31.6604C71.4205 32.2524 72.534 32.5509 73.7404 32.5509C74.9321 32.5509 76.0457 32.2524 77.0762 31.6506C78.1018 31.0537 78.9224 30.2415 79.5231 29.2189C80.1238 28.1914 80.4266 27.0759 80.4266 25.8673C80.4266 24.6735 80.1238 23.5628 79.5133 22.5403C78.9028 21.5128 78.0872 20.6957 77.0664 20.0841C76.0408 19.4774 74.9321 19.1691 73.7404 19.1691C72.534 19.1691 71.4253 19.4774 70.4046 20.0841C69.3887 20.6957 68.578 21.5128 67.9772 22.5403ZM69.5303 28.3676C69.0957 27.6092 68.8808 26.7823 68.8808 25.8869C68.8808 24.9818 69.0908 24.1451 69.5206 23.372C69.9455 22.599 70.5365 21.9874 71.2837 21.5323C72.031 21.0822 72.8466 20.8522 73.7404 20.8522C74.6293 20.8522 75.4498 21.0773 76.1971 21.5226C76.9443 21.9727 77.5353 22.5794 77.97 23.3525C78.3998 24.1255 78.6195 24.9622 78.6195 25.8673C78.6195 26.7725 78.4046 27.6092 77.9797 28.3773C77.5499 29.1406 76.9639 29.7473 76.2264 30.1877C75.484 30.628 74.6684 30.8482 73.7746 30.8482C72.8857 30.8482 72.0603 30.6231 71.3081 30.1779C70.556 29.7326 69.965 29.1259 69.5303 28.3676ZM85.3791 29.3363C85.1007 28.8715 84.9639 28.348 84.9639 27.7706V19.3159H83.2106V27.8245C83.2106 28.7541 83.4206 29.5761 83.8504 30.2953C84.2802 31.0146 84.8662 31.5674 85.6135 31.9589C86.3608 32.3552 87.1862 32.5509 88.0897 32.5509C89.003 32.5509 89.8333 32.3552 90.5806 31.9589C91.3278 31.5674 91.9188 31.0146 92.3535 30.2953C92.7882 29.5761 93.0031 28.7541 93.0031 27.8245V19.3159H91.2888V27.7706C91.2888 28.348 91.1471 28.8764 90.8687 29.3461C90.5952 29.8158 90.2094 30.1828 89.7259 30.447C89.2375 30.7161 88.6905 30.8482 88.0897 30.8482C87.5085 30.8482 86.981 30.7112 86.5073 30.4421C86.0286 30.1681 85.6526 29.8011 85.3791 29.3363ZM98.8395 32.7221C99.24 31.9686 99.4354 31.0684 99.4354 30.0311V19.3159H97.682V29.9773C97.682 31.0635 97.4231 31.8953 96.8956 32.4677C96.3731 33.0402 95.6649 33.3533 94.776 33.3973V35.1C95.6795 35.0756 96.4805 34.8652 97.1887 34.4591C97.892 34.053 98.4439 33.4756 98.8395 32.7221ZM111.689 19.3159H103.196V32.4041H111.943V30.7014H104.949V26.6649H110.967V24.9818H104.949V20.999H111.689V19.3159ZM123.489 19.3159H114.996V32.4041H123.743V30.7014H116.749V26.6649H122.766V24.9818H116.749V20.999H123.489V19.3159ZM142.859 32.4041V19.3159H141.106V24.9818H134.259V19.3159H132.505V32.4041H134.259V26.6649H141.106V32.4041H142.859ZM146.708 22.5403C146.107 23.5628 145.804 24.6735 145.804 25.8673C145.804 27.1003 146.102 28.2257 146.703 29.2434C147.299 30.266 148.11 31.0684 149.131 31.6604C150.156 32.2524 151.27 32.5509 152.476 32.5509C153.668 32.5509 154.776 32.2524 155.807 31.6506C156.838 31.0537 157.653 30.2415 158.259 29.2189C158.86 28.1914 159.162 27.0759 159.162 25.8673C159.162 24.6735 158.855 23.5628 158.249 22.5403C157.639 21.5128 156.823 20.6957 155.802 20.0841C154.776 19.4774 153.668 19.1691 152.476 19.1691C151.27 19.1691 150.161 19.4774 149.14 20.0841C148.124 20.6957 147.314 21.5128 146.708 22.5403ZM148.266 28.3676C147.831 27.6092 147.612 26.7823 147.612 25.8869C147.612 24.9818 147.826 24.1451 148.256 23.372C148.681 22.599 149.272 21.9874 150.019 21.5323C150.762 21.0822 151.582 20.8522 152.476 20.8522C153.365 20.8522 154.186 21.0773 154.933 21.5226C155.68 21.9727 156.271 22.5794 156.706 23.3525C157.135 24.1255 157.355 24.9622 157.355 25.8673C157.355 26.7725 157.14 27.6092 156.711 28.3773C156.286 29.1406 155.7 29.7473 154.962 30.1877C154.22 30.628 153.404 30.8482 152.51 30.8482C151.621 30.8482 150.796 30.6231 150.044 30.1779C149.292 29.7326 148.696 29.1259 148.266 28.3676ZM175.099 18.9H175.079L168.559 28.0251L162.127 18.9H162.107V32.4041H163.807V24.1696L168.52 30.7552H168.559L173.365 23.9298V32.4041H175.099V18.9ZM187.353 19.3159H178.86V32.4041H187.607V30.7014H180.613V26.6649H186.63V24.9818H180.613V20.999H187.353V19.3159Z" fill="white"/>
</svg>
