<?xml version="1.0" encoding="utf-8"?>
<!-- Generator: Adobe Illustrator 21.0.2, SVG Export Plug-In . SVG Version: 6.00 Build 0)  -->
<svg version="1.1" id="Layer_1" xmlns="http://www.w3.org/2000/svg" xmlns:xlink="http://www.w3.org/1999/xlink" x="0px" y="0px"
	 viewBox="0 0 143 128" style="enable-background:new 0 0 143 128;" xml:space="preserve">
<style type="text/css">
	.st0{fill:#FFFFFF;}
</style>
<path class="st0" d="M106.9,39.2c-0.2-0.2-0.4-0.4-0.7-0.6c-0.1-0.1-0.2-0.2-0.4-0.2c-0.1-0.1-0.2-0.1-0.4-0.2
	c-0.3-0.1-0.7-0.2-1-0.3c-0.1,0-0.3,0-0.5,0c-0.2,0-0.4,0-0.5,0c-0.1,0-0.1,0-0.1,0l-0.4,0.1c-0.1,0-0.2,0-0.2,0.1
	c-0.3,0.1-0.6,0.2-0.9,0.3c-0.8,0.4-1.4,0.9-2,1.5L98.6,41l1-7.7c0.1-0.8,0.3-1.7,0.5-2.5l1.9-8c0.1-0.2,0.1-0.4,0-0.7l1-4
	c0.1-0.2,0.2-0.4,0.3-0.6l0.2-0.9c1-4,1.1-8.2,0.4-12.2c-0.3-1.8-1.5-3.3-3.1-4C100.2,0.2,99.4,0,98.6,0c-1,0-2,0.2-2.9,0.8l-6,3.5
	c-4.1,2.5-8.6,4.2-13.3,5.3c-1.6,0.4-3.2,0.6-4.9,0.6h-0.5c-1.6,0-3.3-0.2-4.9-0.6C61.5,8.5,57,6.8,52.9,4.3l-6-3.5
	C46,0.2,45,0,44,0c-0.8,0-1.6,0.2-2.3,0.5c-1.6,0.7-2.8,2.3-3.1,4C37.9,8.6,38,12.7,39,16.8l0.2,0.9c0.1,0.2,0.2,0.4,0.3,0.6l1,4
	c-0.1,0.2-0.1,0.4,0,0.7l1.9,8c0.2,0.8,0.4,1.7,0.5,2.5l1,7.7l-1.1-1.2c-0.6-0.6-1.3-1.1-2-1.5c-0.3-0.1-0.6-0.2-0.9-0.3
	c-0.1,0-0.2,0-0.2-0.1c-0.1,0-0.2-0.1-0.4-0.1c-0.1,0-0.1,0-0.1,0c-0.2,0-0.4,0-0.5,0c-0.2,0-0.3,0-0.5,0c-0.3,0.1-0.7,0.1-1,0.3
	c-0.1,0.1-0.2,0.1-0.4,0.2c-0.1,0.1-0.2,0.1-0.4,0.2c-0.2,0.2-0.5,0.4-0.7,0.6c-1.3,1.4-1.6,3.3-0.7,5l4.5,8.2
	c0.6,1.2,1.8,2.1,3.1,2.4l0.5,0.1l1.1,0.3l6.5,30.3C51,88,52.7,90,55,90.7c0.5,0.1,0.9,0.2,1.4,0.3c0.2,0,0.4,0,0.5,0
	c1.7,0,3.4-0.7,4.6-2l9.7-10.3L81,89c1.2,1.3,2.9,2,4.6,2c0.2,0,0.4,0,0.5,0c0.2,0,0.4,0,0.5,0c0.6,0,1.3-0.1,1.9-0.3
	c2.3-0.7,4-2.7,4.4-5.1l6.5-30.4c0-0.1,0-0.1,0-0.2l0.5-0.1c1.3-0.3,2.5-1.2,3.1-2.4l4.5-8.2c0.1-0.1,0.1-0.2,0.2-0.4
	c0-0.1,0.1-0.2,0.1-0.2c0-0.1,0.1-0.2,0.1-0.3c0-0.1,0.1-0.2,0.1-0.3l0.1-0.3c0-0.1,0-0.2,0-0.3C108.2,41.4,107.8,40.2,106.9,39.2z
	 M97.8,28.8l-0.4,1.5c-0.2,0.9-0.4,1.8-0.5,2.8L96,39.4l-23.3,7.7V12.8c1.5-0.1,2.9-0.3,4.3-0.6l0.1,0c5-1.1,9.8-3,14.2-5.6l6-3.5
	c0.4-0.2,0.9-0.4,1.3-0.4c0.4,0,0.7,0.1,1.1,0.3c0.8,0.4,1.4,1.1,1.6,2c0.6,3.7,0.5,7.5-0.4,11.2l-1.7,7.1c-0.1,0.2-0.1,0.4,0,0.7
	l-1,4.4C97.9,28.4,97.8,28.6,97.8,28.8z M83.6,56.3l-9.2,3.1c-0.6,0.2-1.2,0.3-1.7,0.4v-9.7l22.9-7.6l-0.3,1.9L83.6,56.3z
	 M71.5,62.6c1.4,0,2.8-0.2,4.1-0.7l9-3c0.1,0,0.1-0.1,0.2-0.1l0.1,0l0.1,0L71.3,73.5L57.6,58.8l0.1,0l0.1,0c0.1,0,0.1,0.1,0.2,0.1
	l9,3c1.3,0.4,2.7,0.7,4.1,0.7H71.5z M55.9,88.1c-1.4-0.4-2.3-1.5-2.6-3c0,0,0-0.1,0-0.1l-6.2-29l3.7,1l2,0.5l17.3,18.6L59.7,87.2
	c-0.9,0.9-2,1.3-3.2,1.1C56.3,88.2,56.1,88.2,55.9,88.1z M45.7,33c-0.1-0.9-0.3-1.8-0.5-2.8l-0.4-1.5c-0.1-0.2-0.2-0.4-0.3-0.6
	l-1-4.4c0.1-0.2,0.1-0.4,0-0.7l-1.7-7.1c-0.9-3.7-1-7.4-0.4-11.2c0.2-0.9,0.7-1.7,1.6-2c0.4-0.2,0.7-0.2,1.1-0.3
	c0.5,0,0.9,0.1,1.3,0.4l6,3.5c4.4,2.6,9.2,4.5,14.2,5.6l0.1,0c1.4,0.3,2.9,0.5,4.3,0.6v34.4l-23.3-7.7L45.7,33z M47.3,44.4L47,42.5
	L70,50.1v9.7c-0.6-0.1-1.2-0.2-1.7-0.4L59,56.3L47.3,44.4z M43.3,52.3c-0.6-0.2-1.1-0.6-1.4-1.1L37.4,43c-0.1-0.1-0.1-0.2-0.1-0.3
	c0-0.1-0.1-0.2-0.1-0.2v0c-0.1-0.4,0.1-0.7,0.2-1c0,0,0-0.1,0.1-0.1c0-0.1,0.1-0.1,0.1-0.1l0.1-0.1c0,0,0-0.1,0.1-0.1
	c0.1-0.1,0.6-0.5,1.2-0.5c0.2,0,0.5,0.1,0.7,0.2c0.5,0.2,0.9,0.6,1.3,1l13.1,13.4c-0.1-0.1-0.3-0.1-0.4-0.1L43.3,52.3z M86.2,88.3
	C85,88.5,83.8,88,83,87.1L72.5,76.1l17.3-18.5l2-0.5l3.7-1l1.1-0.3l-6.3,29.3c0,0,0,0.1,0,0.1c-0.2,1.4-1.2,2.5-2.6,3
	C87.3,88.3,86.7,88.4,86.2,88.3z M105.4,42.4c0,0.1,0,0.1,0,0.1c0,0.1,0,0.1,0,0.1c0,0.1-0.1,0.2-0.1,0.3l-4.5,8.2
	c-0.3,0.6-0.8,0.9-1.4,1.1L89,55c-0.2,0-0.3,0.1-0.4,0.1l13.1-13.4c0.4-0.4,0.8-0.7,1.3-1c0.3-0.1,0.5-0.2,0.7-0.2
	c0.6,0,1,0.4,1.2,0.5c0,0.1,0.1,0.1,0.2,0.2c0,0,0.1,0.1,0.1,0.1c0,0.1,0.1,0.1,0.1,0.2c0,0,0,0.1,0,0.1
	C105.4,41.9,105.4,42.1,105.4,42.4z"/>
<path class="st0" d="M8.2,118.9c-0.5-0.6-1.1-1-1.9-1.3c0.6-0.3,1.1-0.8,1.4-1.3c0.3-0.6,0.5-1.2,0.5-2c0-1.2-0.4-2.1-1.2-2.7
	c-0.8-0.6-1.9-0.9-3.4-0.9H0v14.2h4.2c0.9,0,1.6-0.1,2.3-0.4c0.7-0.3,1.3-0.7,1.7-1.3c0.4-0.6,0.7-1.3,0.7-2.3
	C9,120.2,8.7,119.5,8.2,118.9z M1.9,116.9v-4.4h1.8c0.8,0,1.4,0.2,1.9,0.5c0.4,0.4,0.7,0.9,0.7,1.6c0,0.7-0.2,1.2-0.6,1.6
	c-0.4,0.4-0.9,0.6-1.7,0.6H1.9z M6.2,122.6c-0.5,0.4-1.2,0.6-2,0.6H1.9v-4.4H4c0.8,0,1.5,0.2,2.1,0.5c0.6,0.4,0.9,0.9,0.9,1.7
	C7,121.7,6.7,122.2,6.2,122.6z M12.3,114.2c-0.7,1.1-1,2.3-1,3.6c0,1.3,0.3,2.6,1,3.7c0.6,1.1,1.5,2,2.6,2.6c1.1,0.6,2.3,1,3.6,1
	c1.3,0,2.5-0.3,3.6-1c1.1-0.6,2-1.5,2.7-2.6c0.7-1.1,1-2.3,1-3.6c0-1.3-0.3-2.5-1-3.6c-0.7-1.1-1.5-2-2.7-2.7c-1.1-0.7-2.3-1-3.6-1
	c-1.3,0-2.5,0.3-3.6,1C13.8,112.2,12.9,113.1,12.3,114.2z M13.9,120.6c-0.5-0.8-0.7-1.7-0.7-2.7c0-1,0.2-1.9,0.7-2.7
	c0.5-0.8,1.1-1.5,1.9-2c0.8-0.5,1.7-0.7,2.7-0.7c1,0,1.9,0.2,2.7,0.7c0.8,0.5,1.5,1.1,1.9,2c0.5,0.8,0.7,1.7,0.7,2.7
	s-0.2,1.9-0.7,2.7c-0.5,0.8-1.1,1.5-1.9,2c-0.8,0.5-1.7,0.7-2.7,0.7c-1,0-1.9-0.2-2.7-0.7C15.1,122,14.4,121.4,13.9,120.6z
	 M31.2,121.6c-0.3-0.5-0.5-1.1-0.5-1.7v-9.2h-1.9v9.2c0,1,0.2,1.9,0.7,2.7c0.5,0.8,1.1,1.4,1.9,1.8c0.8,0.4,1.7,0.6,2.7,0.6
	c1,0,1.9-0.2,2.7-0.6c0.8-0.4,1.5-1,1.9-1.8c0.5-0.8,0.7-1.7,0.7-2.7v-9.2h-1.9v9.2c0,0.6-0.2,1.2-0.5,1.7c-0.3,0.5-0.7,0.9-1.2,1.2
	c-0.5,0.3-1.1,0.4-1.8,0.4c-0.6,0-1.2-0.1-1.7-0.4C31.9,122.5,31.5,122.1,31.2,121.6z M45.8,125.3c0.4-0.8,0.6-1.8,0.6-2.9v-11.6
	h-1.9v11.6c0,1.2-0.3,2.1-0.9,2.7c-0.6,0.6-1.3,1-2.3,1v1.8c1,0,1.9-0.3,2.6-0.7C44.8,126.7,45.4,126.1,45.8,125.3z M59.8,110.7
	h-9.2v14.2H60v-1.8h-7.6v-4.4H59v-1.8h-6.5v-4.3h7.3V110.7z M72.6,110.7h-9.2v14.2h9.5v-1.8h-7.6v-4.4h6.5v-1.8h-6.5v-4.3h7.3V110.7
	z M93.6,124.9v-14.2h-1.9v6.1h-7.4v-6.1h-1.9v14.2h1.9v-6.2h7.4v6.2H93.6z M97.8,114.2c-0.7,1.1-1,2.3-1,3.6c0,1.3,0.3,2.6,1,3.7
	c0.6,1.1,1.5,2,2.6,2.6c1.1,0.6,2.3,1,3.6,1c1.3,0,2.5-0.3,3.6-1c1.1-0.6,2-1.5,2.7-2.6c0.7-1.1,1-2.3,1-3.6c0-1.3-0.3-2.5-1-3.6
	c-0.7-1.1-1.5-2-2.7-2.7c-1.1-0.7-2.3-1-3.6-1c-1.3,0-2.5,0.3-3.6,1C99.4,112.2,98.5,113.1,97.8,114.2z M99.5,120.6
	c-0.5-0.8-0.7-1.7-0.7-2.7c0-1,0.2-1.9,0.7-2.7c0.5-0.8,1.1-1.5,1.9-2c0.8-0.5,1.7-0.7,2.7-0.7c1,0,1.9,0.2,2.7,0.7
	c0.8,0.5,1.5,1.1,1.9,2c0.5,0.8,0.7,1.7,0.7,2.7s-0.2,1.9-0.7,2.7c-0.5,0.8-1.1,1.5-1.9,2c-0.8,0.5-1.7,0.7-2.7,0.7
	c-1,0-1.9-0.2-2.7-0.7C100.6,122,100,121.4,99.5,120.6z M128.7,110.3L128.7,110.3l-7.1,9.9l-7-9.9h0v14.6h1.8V116l5.1,7.1h0l5.2-7.4
	v9.2h1.9V110.3z M142,110.7h-9.2v14.2h9.5v-1.8h-7.6v-4.4h6.5v-1.8h-6.5v-4.3h7.3V110.7z"/>
</svg>
